<mxfile host="app.diagrams.net" modified="2024-03-25T11:04:29.503Z" agent="Mozilla/5.0 (Macintosh; Intel Mac OS X 10_15_7) AppleWebKit/537.36 (KHTML, like Gecko) Chrome/122.0.0.0 Safari/537.36" etag="Fhkn6CFMNQ160awJdaeV" version="24.1.0" type="github">
  <diagram name="Page-1" id="8zwBPbk5XbNeeR07Olvg">
    <mxGraphModel dx="708" dy="472" grid="1" gridSize="10" guides="1" tooltips="1" connect="1" arrows="1" fold="1" page="1" pageScale="1" pageWidth="850" pageHeight="1100" math="0" shadow="0">
      <root>
        <mxCell id="0" />
        <mxCell id="1" parent="0" />
        <mxCell id="fFpRM9T_g1Zg0k8oakR_-2" value="" style="rounded=1;whiteSpace=wrap;html=1;labelBackgroundColor=none;" parent="1" vertex="1">
          <mxGeometry x="230" y="170" width="390" height="800" as="geometry" />
        </mxCell>
        <mxCell id="fFpRM9T_g1Zg0k8oakR_-5" value="" style="group;rounded=1;labelBackgroundColor=none;" parent="1" vertex="1" connectable="0">
          <mxGeometry x="305" y="100" width="240" height="60" as="geometry" />
        </mxCell>
        <mxCell id="fFpRM9T_g1Zg0k8oakR_-3" value="&lt;font style=&quot;font-size: 20px;&quot;&gt;Laundry Management&lt;/font&gt;" style="text;html=1;strokeColor=none;fillColor=none;align=center;verticalAlign=middle;whiteSpace=wrap;rounded=1;labelBackgroundColor=none;" parent="fFpRM9T_g1Zg0k8oakR_-5" vertex="1">
          <mxGeometry width="240" height="30" as="geometry" />
        </mxCell>
        <mxCell id="fFpRM9T_g1Zg0k8oakR_-4" value="USE CASE" style="text;html=1;strokeColor=none;fillColor=none;align=center;verticalAlign=middle;whiteSpace=wrap;rounded=1;labelBackgroundColor=none;" parent="fFpRM9T_g1Zg0k8oakR_-5" vertex="1">
          <mxGeometry x="78" y="30" width="85" height="30" as="geometry" />
        </mxCell>
        <mxCell id="fFpRM9T_g1Zg0k8oakR_-9" value="System Admin" style="shape=umlActor;verticalLabelPosition=bottom;verticalAlign=top;html=1;outlineConnect=0;rounded=1;labelBackgroundColor=none;" parent="1" vertex="1">
          <mxGeometry x="710" y="520" width="30" height="60" as="geometry" />
        </mxCell>
        <mxCell id="fFpRM9T_g1Zg0k8oakR_-11" value="Manager" style="shape=umlActor;verticalLabelPosition=bottom;verticalAlign=top;html=1;outlineConnect=0;rounded=1;labelBackgroundColor=none;" parent="1" vertex="1">
          <mxGeometry x="90" y="355" width="30" height="60" as="geometry" />
        </mxCell>
        <mxCell id="fFpRM9T_g1Zg0k8oakR_-15" value="&lt;font style=&quot;font-size: 10px;&quot;&gt;Track Order Status&lt;/font&gt;" style="ellipse;whiteSpace=wrap;html=1;rounded=1;labelBackgroundColor=none;" parent="1" vertex="1">
          <mxGeometry x="390" y="730" width="70" height="30" as="geometry" />
        </mxCell>
        <mxCell id="fFpRM9T_g1Zg0k8oakR_-19" value="&lt;font style=&quot;font-size: 10px;&quot;&gt;Process Order&lt;/font&gt;" style="ellipse;whiteSpace=wrap;html=1;rounded=1;labelBackgroundColor=none;" parent="1" vertex="1">
          <mxGeometry x="390" y="650" width="70" height="30" as="geometry" />
        </mxCell>
        <mxCell id="fFpRM9T_g1Zg0k8oakR_-22" value="&lt;font style=&quot;font-size: 10px;&quot;&gt;Generate Reports&lt;/font&gt;" style="ellipse;whiteSpace=wrap;html=1;rounded=1;labelBackgroundColor=none;" parent="1" vertex="1">
          <mxGeometry x="390" y="810" width="70" height="30" as="geometry" />
        </mxCell>
        <mxCell id="fFpRM9T_g1Zg0k8oakR_-28" value="&lt;font style=&quot;font-size: 10px;&quot;&gt;Generate Invoice&lt;/font&gt;" style="ellipse;whiteSpace=wrap;html=1;rounded=1;labelBackgroundColor=none;" parent="1" vertex="1">
          <mxGeometry x="390" y="900" width="70" height="30" as="geometry" />
        </mxCell>
        <mxCell id="fFpRM9T_g1Zg0k8oakR_-29" value="&lt;font style=&quot;font-size: 10px;&quot;&gt;Machine Operator&lt;br&gt;ironer, Dryer, Washer,Packing&lt;br&gt;&lt;/font&gt;" style="shape=umlActor;verticalLabelPosition=bottom;verticalAlign=top;html=1;outlineConnect=0;rounded=1;labelBackgroundColor=none;" parent="1" vertex="1">
          <mxGeometry x="90" y="590" width="30" height="50" as="geometry" />
        </mxCell>
        <mxCell id="fFpRM9T_g1Zg0k8oakR_-30" value="&lt;font style=&quot;font-size: 10px;&quot;&gt;POS&lt;/font&gt;" style="shape=umlActor;verticalLabelPosition=bottom;verticalAlign=top;html=1;outlineConnect=0;rounded=1;labelBackgroundColor=none;" parent="1" vertex="1">
          <mxGeometry x="105" y="800" width="25" height="50" as="geometry" />
        </mxCell>
        <mxCell id="j_nONNWvxkk0N0HXNlYv-2" value="&lt;font style=&quot;font-size: 10px;&quot;&gt;Login&lt;/font&gt;" style="ellipse;whiteSpace=wrap;html=1;rounded=1;labelBackgroundColor=none;" vertex="1" parent="1">
          <mxGeometry x="390" y="200" width="70" height="30" as="geometry" />
        </mxCell>
        <mxCell id="j_nONNWvxkk0N0HXNlYv-3" value="&lt;font style=&quot;font-size: 10px;&quot;&gt;User management&lt;/font&gt;" style="ellipse;whiteSpace=wrap;html=1;rounded=1;labelBackgroundColor=none;" vertex="1" parent="1">
          <mxGeometry x="390" y="265" width="70" height="30" as="geometry" />
        </mxCell>
        <mxCell id="j_nONNWvxkk0N0HXNlYv-4" value="&lt;font style=&quot;font-size: 10px;&quot;&gt;Role management&lt;/font&gt;" style="ellipse;whiteSpace=wrap;html=1;rounded=1;labelBackgroundColor=none;" vertex="1" parent="1">
          <mxGeometry x="390" y="325" width="70" height="30" as="geometry" />
        </mxCell>
        <mxCell id="j_nONNWvxkk0N0HXNlYv-5" value="&lt;font style=&quot;font-size: 10px;&quot;&gt;Location management&lt;/font&gt;" style="ellipse;whiteSpace=wrap;html=1;rounded=1;labelBackgroundColor=none;" vertex="1" parent="1">
          <mxGeometry x="390" y="405" width="70" height="30" as="geometry" />
        </mxCell>
        <mxCell id="j_nONNWvxkk0N0HXNlYv-12" style="rounded=0;orthogonalLoop=1;jettySize=auto;html=1;exitX=1;exitY=0.5;exitDx=0;exitDy=0;endArrow=none;endFill=0;entryX=0.5;entryY=0.5;entryDx=0;entryDy=0;entryPerimeter=0;" edge="1" parent="1" source="j_nONNWvxkk0N0HXNlYv-6" target="fFpRM9T_g1Zg0k8oakR_-9">
          <mxGeometry relative="1" as="geometry">
            <mxPoint x="739.9999999999998" y="480.0000000000001" as="targetPoint" />
          </mxGeometry>
        </mxCell>
        <mxCell id="j_nONNWvxkk0N0HXNlYv-6" value="&lt;font style=&quot;font-size: 10px;&quot;&gt;Manage&lt;/font&gt;&lt;div&gt;&lt;font style=&quot;font-size: 10px;&quot;&gt;Customer Info&lt;/font&gt;&lt;/div&gt;" style="ellipse;whiteSpace=wrap;html=1;rounded=1;labelBackgroundColor=none;" vertex="1" parent="1">
          <mxGeometry x="390" y="475" width="70" height="30" as="geometry" />
        </mxCell>
        <mxCell id="j_nONNWvxkk0N0HXNlYv-7" value="&lt;font style=&quot;font-size: 10px;&quot;&gt;Tag&lt;/font&gt;&lt;div&gt;&lt;span style=&quot;font-size: 10px; background-color: initial;&quot;&gt;&amp;nbsp;management&lt;/span&gt;&lt;/div&gt;" style="ellipse;whiteSpace=wrap;html=1;rounded=1;labelBackgroundColor=none;" vertex="1" parent="1">
          <mxGeometry x="390" y="560" width="70" height="30" as="geometry" />
        </mxCell>
        <mxCell id="j_nONNWvxkk0N0HXNlYv-8" style="rounded=0;orthogonalLoop=1;jettySize=auto;html=1;exitX=1;exitY=1;exitDx=0;exitDy=0;entryX=0.5;entryY=0.5;entryDx=0;entryDy=0;entryPerimeter=0;endArrow=none;endFill=0;" edge="1" parent="1" source="j_nONNWvxkk0N0HXNlYv-2" target="fFpRM9T_g1Zg0k8oakR_-9">
          <mxGeometry relative="1" as="geometry" />
        </mxCell>
        <mxCell id="j_nONNWvxkk0N0HXNlYv-9" style="rounded=0;orthogonalLoop=1;jettySize=auto;html=1;exitX=1;exitY=0.5;exitDx=0;exitDy=0;entryX=0.5;entryY=0.5;entryDx=0;entryDy=0;entryPerimeter=0;endArrow=none;endFill=0;" edge="1" parent="1" source="j_nONNWvxkk0N0HXNlYv-3" target="fFpRM9T_g1Zg0k8oakR_-9">
          <mxGeometry relative="1" as="geometry" />
        </mxCell>
        <mxCell id="j_nONNWvxkk0N0HXNlYv-10" style="rounded=0;orthogonalLoop=1;jettySize=auto;html=1;exitX=1;exitY=1;exitDx=0;exitDy=0;entryX=0.5;entryY=0.5;entryDx=0;entryDy=0;entryPerimeter=0;endArrow=none;endFill=0;" edge="1" parent="1" source="j_nONNWvxkk0N0HXNlYv-4" target="fFpRM9T_g1Zg0k8oakR_-9">
          <mxGeometry relative="1" as="geometry" />
        </mxCell>
        <mxCell id="j_nONNWvxkk0N0HXNlYv-11" style="rounded=0;orthogonalLoop=1;jettySize=auto;html=1;exitX=1;exitY=0.5;exitDx=0;exitDy=0;entryX=0.5;entryY=0.5;entryDx=0;entryDy=0;entryPerimeter=0;endArrow=none;endFill=0;" edge="1" parent="1" source="j_nONNWvxkk0N0HXNlYv-5" target="fFpRM9T_g1Zg0k8oakR_-9">
          <mxGeometry relative="1" as="geometry" />
        </mxCell>
        <mxCell id="j_nONNWvxkk0N0HXNlYv-13" style="rounded=0;orthogonalLoop=1;jettySize=auto;html=1;exitX=1;exitY=0.5;exitDx=0;exitDy=0;entryX=0.5;entryY=0.5;entryDx=0;entryDy=0;entryPerimeter=0;endArrow=none;endFill=0;" edge="1" parent="1" source="j_nONNWvxkk0N0HXNlYv-7" target="fFpRM9T_g1Zg0k8oakR_-9">
          <mxGeometry relative="1" as="geometry" />
        </mxCell>
        <mxCell id="j_nONNWvxkk0N0HXNlYv-15" style="rounded=0;orthogonalLoop=1;jettySize=auto;html=1;exitX=1;exitY=0;exitDx=0;exitDy=0;entryX=0.5;entryY=0.5;entryDx=0;entryDy=0;entryPerimeter=0;endArrow=none;endFill=0;" edge="1" parent="1" source="fFpRM9T_g1Zg0k8oakR_-19" target="fFpRM9T_g1Zg0k8oakR_-9">
          <mxGeometry relative="1" as="geometry" />
        </mxCell>
        <mxCell id="j_nONNWvxkk0N0HXNlYv-16" style="rounded=0;orthogonalLoop=1;jettySize=auto;html=1;exitX=1;exitY=0;exitDx=0;exitDy=0;entryX=0.5;entryY=0.5;entryDx=0;entryDy=0;entryPerimeter=0;endArrow=none;endFill=0;" edge="1" parent="1" source="fFpRM9T_g1Zg0k8oakR_-15" target="fFpRM9T_g1Zg0k8oakR_-9">
          <mxGeometry relative="1" as="geometry" />
        </mxCell>
        <mxCell id="j_nONNWvxkk0N0HXNlYv-17" style="rounded=0;orthogonalLoop=1;jettySize=auto;html=1;exitX=1;exitY=0;exitDx=0;exitDy=0;entryX=0.5;entryY=0.5;entryDx=0;entryDy=0;entryPerimeter=0;endArrow=none;endFill=0;" edge="1" parent="1" source="fFpRM9T_g1Zg0k8oakR_-22" target="fFpRM9T_g1Zg0k8oakR_-9">
          <mxGeometry relative="1" as="geometry" />
        </mxCell>
        <mxCell id="j_nONNWvxkk0N0HXNlYv-18" style="rounded=0;orthogonalLoop=1;jettySize=auto;html=1;exitX=1;exitY=0;exitDx=0;exitDy=0;entryX=0.5;entryY=0.5;entryDx=0;entryDy=0;entryPerimeter=0;endArrow=none;endFill=0;" edge="1" parent="1" source="fFpRM9T_g1Zg0k8oakR_-28" target="fFpRM9T_g1Zg0k8oakR_-9">
          <mxGeometry relative="1" as="geometry" />
        </mxCell>
        <mxCell id="j_nONNWvxkk0N0HXNlYv-20" style="rounded=0;orthogonalLoop=1;jettySize=auto;html=1;exitX=0;exitY=1;exitDx=0;exitDy=0;entryX=0.5;entryY=0.5;entryDx=0;entryDy=0;entryPerimeter=0;endArrow=none;endFill=0;" edge="1" parent="1" source="fFpRM9T_g1Zg0k8oakR_-15" target="fFpRM9T_g1Zg0k8oakR_-30">
          <mxGeometry relative="1" as="geometry">
            <mxPoint x="112.5" y="825" as="targetPoint" />
          </mxGeometry>
        </mxCell>
        <mxCell id="j_nONNWvxkk0N0HXNlYv-21" style="rounded=0;orthogonalLoop=1;jettySize=auto;html=1;exitX=0;exitY=0.5;exitDx=0;exitDy=0;entryX=0.5;entryY=0.5;entryDx=0;entryDy=0;entryPerimeter=0;endArrow=none;endFill=0;" edge="1" parent="1" source="fFpRM9T_g1Zg0k8oakR_-28" target="fFpRM9T_g1Zg0k8oakR_-30">
          <mxGeometry relative="1" as="geometry" />
        </mxCell>
        <mxCell id="j_nONNWvxkk0N0HXNlYv-22" style="rounded=0;orthogonalLoop=1;jettySize=auto;html=1;exitX=0;exitY=0.5;exitDx=0;exitDy=0;entryX=0.5;entryY=0.5;entryDx=0;entryDy=0;entryPerimeter=0;endArrow=none;endFill=0;" edge="1" parent="1" source="j_nONNWvxkk0N0HXNlYv-7" target="fFpRM9T_g1Zg0k8oakR_-29">
          <mxGeometry relative="1" as="geometry" />
        </mxCell>
        <mxCell id="j_nONNWvxkk0N0HXNlYv-23" style="rounded=0;orthogonalLoop=1;jettySize=auto;html=1;exitX=0;exitY=0.5;exitDx=0;exitDy=0;entryX=0.5;entryY=0.5;entryDx=0;entryDy=0;entryPerimeter=0;endArrow=none;endFill=0;" edge="1" parent="1" source="fFpRM9T_g1Zg0k8oakR_-19" target="fFpRM9T_g1Zg0k8oakR_-29">
          <mxGeometry relative="1" as="geometry" />
        </mxCell>
        <mxCell id="j_nONNWvxkk0N0HXNlYv-24" style="rounded=0;orthogonalLoop=1;jettySize=auto;html=1;exitX=0;exitY=0.5;exitDx=0;exitDy=0;entryX=0.5;entryY=0.5;entryDx=0;entryDy=0;entryPerimeter=0;endArrow=none;endFill=0;" edge="1" parent="1" source="fFpRM9T_g1Zg0k8oakR_-22" target="fFpRM9T_g1Zg0k8oakR_-29">
          <mxGeometry relative="1" as="geometry" />
        </mxCell>
        <mxCell id="j_nONNWvxkk0N0HXNlYv-25" style="rounded=0;orthogonalLoop=1;jettySize=auto;html=1;exitX=0;exitY=0.5;exitDx=0;exitDy=0;entryX=0.5;entryY=0.5;entryDx=0;entryDy=0;entryPerimeter=0;endArrow=none;endFill=0;" edge="1" parent="1" source="j_nONNWvxkk0N0HXNlYv-3" target="fFpRM9T_g1Zg0k8oakR_-11">
          <mxGeometry relative="1" as="geometry" />
        </mxCell>
        <mxCell id="j_nONNWvxkk0N0HXNlYv-26" style="rounded=0;orthogonalLoop=1;jettySize=auto;html=1;exitX=0;exitY=0.5;exitDx=0;exitDy=0;entryX=0.5;entryY=0.5;entryDx=0;entryDy=0;entryPerimeter=0;endArrow=none;endFill=0;" edge="1" parent="1" source="j_nONNWvxkk0N0HXNlYv-5" target="fFpRM9T_g1Zg0k8oakR_-11">
          <mxGeometry relative="1" as="geometry" />
        </mxCell>
        <mxCell id="j_nONNWvxkk0N0HXNlYv-27" style="rounded=0;orthogonalLoop=1;jettySize=auto;html=1;exitX=0;exitY=0.5;exitDx=0;exitDy=0;entryX=0.5;entryY=0.5;entryDx=0;entryDy=0;entryPerimeter=0;endArrow=none;endFill=0;" edge="1" parent="1" source="j_nONNWvxkk0N0HXNlYv-6" target="fFpRM9T_g1Zg0k8oakR_-11">
          <mxGeometry relative="1" as="geometry" />
        </mxCell>
      </root>
    </mxGraphModel>
  </diagram>
</mxfile>
